<svg width="99" height="20" viewBox="0 0 99 20" fill="none" xmlns="http://www.w3.org/2000/svg">
<path d="M14.3699 3.78182H16.8696L19.8585 9.18693H19.9778L22.9668 3.78182H25.4665L21.0219 11.442V16H18.8145V11.442L14.3699 3.78182ZM33.0327 9.25852L31.064 9.4733C31.0083 9.27443 30.9109 9.0875 30.7717 8.9125C30.6364 8.7375 30.4535 8.59631 30.2228 8.48892C29.9921 8.38153 29.7097 8.32784 29.3756 8.32784C28.9262 8.32784 28.5484 8.42528 28.2421 8.62017C27.9398 8.81506 27.7907 9.06761 27.7947 9.37784C27.7907 9.64432 27.8881 9.86108 28.087 10.0281C28.2898 10.1952 28.6239 10.3324 29.0893 10.4398L30.6523 10.7739C31.5194 10.9608 32.1637 11.2571 32.5853 11.6628C33.0109 12.0685 33.2256 12.5994 33.2296 13.2557C33.2256 13.8324 33.0566 14.3415 32.7225 14.783C32.3924 15.2205 31.933 15.5625 31.3444 15.8091C30.7558 16.0557 30.0796 16.179 29.316 16.179C28.1944 16.179 27.2915 15.9443 26.6075 15.475C25.9234 15.0017 25.5157 14.3435 25.3844 13.5003L27.4904 13.2974C27.5859 13.7111 27.7887 14.0233 28.0989 14.2341C28.4092 14.4449 28.8129 14.5503 29.31 14.5503C29.8231 14.5503 30.2347 14.4449 30.545 14.2341C30.8592 14.0233 31.0163 13.7628 31.0163 13.4526C31.0163 13.1901 30.9148 12.9733 30.712 12.8023C30.5131 12.6313 30.2029 12.5 29.7813 12.4085L28.2183 12.0804C27.3393 11.8974 26.689 11.5892 26.2674 11.1557C25.8458 10.7182 25.637 10.1653 25.641 9.49716C25.637 8.93239 25.7901 8.44318 26.1004 8.02955C26.4146 7.61193 26.8501 7.28977 27.4069 7.06307C27.9677 6.83239 28.614 6.71705 29.3458 6.71705C30.4197 6.71705 31.2648 6.94574 31.8813 7.40313C32.5018 7.86051 32.8856 8.47898 33.0327 9.25852ZM35.0104 16V6.83636H37.1701V16H35.0104ZM36.0962 5.5358C35.7542 5.5358 35.4599 5.42244 35.2133 5.19574C34.9667 4.96506 34.8434 4.68864 34.8434 4.36648C34.8434 4.04034 34.9667 3.76392 35.2133 3.53722C35.4599 3.30653 35.7542 3.19119 36.0962 3.19119C36.4423 3.19119 36.7366 3.30653 36.9792 3.53722C37.2258 3.76392 37.3491 4.04034 37.3491 4.36648C37.3491 4.68864 37.2258 4.96506 36.9792 5.19574C36.7366 5.42244 36.4423 5.5358 36.0962 5.5358ZM46.6335 9.25852L44.6648 9.4733C44.6091 9.27443 44.5116 9.0875 44.3724 8.9125C44.2372 8.7375 44.0543 8.59631 43.8236 8.48892C43.5929 8.38153 43.3105 8.32784 42.9764 8.32784C42.527 8.32784 42.1491 8.42528 41.8429 8.62017C41.5406 8.81506 41.3915 9.06761 41.3955 9.37784C41.3915 9.64432 41.4889 9.86108 41.6878 10.0281C41.8906 10.1952 42.2247 10.3324 42.6901 10.4398L44.2531 10.7739C45.1202 10.9608 45.7645 11.2571 46.1861 11.6628C46.6116 12.0685 46.8264 12.5994 46.8304 13.2557C46.8264 13.8324 46.6574 14.3415 46.3233 14.783C45.9932 15.2205 45.5338 15.5625 44.9452 15.8091C44.3565 16.0557 43.6804 16.179 42.9168 16.179C41.7952 16.179 40.8923 15.9443 40.2082 15.475C39.5241 15.0017 39.1165 14.3435 38.9852 13.5003L41.0912 13.2974C41.1866 13.7111 41.3895 14.0233 41.6997 14.2341C42.0099 14.4449 42.4136 14.5503 42.9108 14.5503C43.4239 14.5503 43.8355 14.4449 44.1457 14.2341C44.4599 14.0233 44.617 13.7628 44.617 13.4526C44.617 13.1901 44.5156 12.9733 44.3128 12.8023C44.1139 12.6313 43.8037 12.5 43.3821 12.4085L41.819 12.0804C40.9401 11.8974 40.2898 11.5892 39.8682 11.1557C39.4466 10.7182 39.2378 10.1653 39.2418 9.49716C39.2378 8.93239 39.3909 8.44318 39.7011 8.02955C40.0153 7.61193 40.4509 7.28977 41.0077 7.06307C41.5685 6.83239 42.2148 6.71705 42.9466 6.71705C44.0205 6.71705 44.8656 6.94574 45.4821 7.40313C46.1026 7.86051 46.4864 8.47898 46.6335 9.25852ZM52.847 16H48.7067V3.78182H52.9305C54.1436 3.78182 55.1857 4.02642 56.0567 4.51563C56.9317 5.00085 57.6038 5.69886 58.0732 6.60966C58.5425 7.52045 58.7771 8.61023 58.7771 9.87898C58.7771 11.1517 58.5405 12.2455 58.0672 13.1602C57.5979 14.075 56.9197 14.777 56.0328 15.2662C55.1499 15.7554 54.0879 16 52.847 16ZM50.92 14.0849H52.7396C53.5908 14.0849 54.3007 13.9298 54.8695 13.6196C55.4382 13.3054 55.8658 12.8381 56.1521 12.2176C56.4385 11.5932 56.5817 10.8136 56.5817 9.87898C56.5817 8.94432 56.4385 8.16875 56.1521 7.55227C55.8658 6.93182 55.4422 6.46847 54.8814 6.16222C54.3246 5.85199 53.6325 5.69688 52.8053 5.69688H50.92V14.0849ZM64.8415 16.179C63.9227 16.179 63.1293 15.9881 62.4611 15.6063C61.7969 15.2205 61.2858 14.6756 60.9278 13.9716C60.5699 13.2636 60.3909 12.4304 60.3909 11.4719C60.3909 10.5293 60.5699 9.70199 60.9278 8.99006C61.2898 8.27415 61.7949 7.71733 62.4432 7.3196C63.0915 6.9179 63.8531 6.71705 64.7281 6.71705C65.2929 6.71705 65.8259 6.80852 66.327 6.99148C66.8321 7.17045 67.2776 7.44886 67.6634 7.8267C68.0531 8.20455 68.3594 8.6858 68.5821 9.27045C68.8048 9.85114 68.9162 10.5432 68.9162 11.3466V12.0088H61.4051V10.5531H66.846C66.842 10.1395 66.7526 9.77159 66.5776 9.44943C66.4026 9.1233 66.158 8.86676 65.8437 8.67983C65.5335 8.4929 65.1716 8.39943 64.758 8.39943C64.3165 8.39943 63.9287 8.50682 63.5946 8.72159C63.2605 8.93239 63 9.2108 62.8131 9.55682C62.6301 9.89886 62.5366 10.2747 62.5327 10.6844V11.9551C62.5327 12.4881 62.6301 12.9455 62.825 13.3273C63.0199 13.7051 63.2923 13.9955 63.6423 14.1983C63.9923 14.3972 64.402 14.4966 64.8713 14.4966C65.1855 14.4966 65.4699 14.4528 65.7244 14.3653C65.979 14.2739 66.1997 14.1406 66.3866 13.9656C66.5736 13.7906 66.7148 13.5739 66.8102 13.3153L68.8267 13.542C68.6994 14.075 68.4568 14.5403 68.0989 14.9381C67.7449 15.3318 67.2915 15.6381 66.7386 15.8568C66.1858 16.0716 65.5534 16.179 64.8415 16.179ZM78.666 6.83636L75.4026 16H73.0163L69.7529 6.83636H72.0558L74.1617 13.6435H74.2572L76.3691 6.83636H78.666Z" fill="#286F6C"/>
<path d="M1.56903 12.0088V10.2906L9.7304 6.52017V8.63807L3.93153 11.1259L3.99716 11.0125V11.2869L3.93153 11.1736L9.7304 13.6614V15.7793L1.56903 12.0088Z" fill="#EEC05C"/>
<path d="M96.5302 12.0088L88.3688 15.7793V13.6614L94.1677 11.1736L94.1021 11.2869V11.0125L94.1677 11.1259L88.3688 8.63807V6.52017L96.5302 10.2906V12.0088Z" fill="#EEC05C"/>
<path d="M86.8082 3.20909L82.8706 17.8375H81.582L85.5195 3.20909H86.8082Z" fill="#EEC05C"/>
</svg>
